<?xml version="1.0" standalone="no"?>
<!DOCTYPE svg PUBLIC "-//W3C//DTD SVG 20010904//EN"
 "http://www.w3.org/TR/2001/REC-SVG-20010904/DTD/svg10.dtd">
<svg version="1.0" xmlns="http://www.w3.org/2000/svg"
 width="360.000000pt" height="254.000000pt" viewBox="0 0 360.000000 254.000000"
 preserveAspectRatio="xMidYMid meet">

<g transform="translate(0.000000,254.000000) scale(0.100000,-0.100000)"
fill="#000000" stroke="none">
<path d="M1490 2515 c0 -2 18 -50 40 -104 l40 -100 -116 -303 c-64 -167 -163
-427 -221 -578 -210 -552 -243 -634 -265 -657 -12 -13 -46 -31 -75 -39 l-53
-15 0 -50 0 -49 280 0 280 0 0 49 0 49 -61 11 c-111 19 -147 57 -128 138 4 21
34 103 66 183 l58 145 344 0 345 0 58 -145 c32 -80 61 -163 64 -185 10 -78
-40 -121 -150 -132 l-66 -6 0 -48 0 -49 440 0 440 0 0 48 0 48 -55 18 c-32 10
-63 28 -76 44 -12 15 -176 410 -364 877 l-341 850 -242 3 c-133 1 -242 0 -242
-3z m314 -767 c70 -178 130 -333 133 -345 l5 -23 -266 0 c-223 0 -266 2 -266
14 0 8 51 146 114 308 62 161 119 310 127 331 7 20 16 37 19 37 3 0 63 -145
134 -322z"/>
<path d="M1140 455 c0 -16 6 -25 15 -25 11 0 15 -12 15 -44 l0 -44 -28 13
c-39 20 -82 6 -109 -35 -30 -44 -32 -140 -3 -187 24 -40 80 -54 121 -30 18 10
29 12 31 5 2 -6 24 -11 49 -11 37 0 45 3 47 20 2 14 -4 22 -17 26 -20 5 -21
12 -21 171 l0 166 -50 0 c-47 0 -50 -2 -50 -25z m19 -159 c7 -9 11 -40 9 -78
-3 -61 -4 -63 -31 -66 -42 -5 -57 13 -57 71 0 72 45 114 79 73z"/>
<path d="M2970 455 c0 -18 5 -25 20 -25 17 0 20 -7 20 -46 0 -39 -2 -45 -14
-35 -17 14 -61 17 -93 7 -28 -9 -63 -81 -63 -129 0 -49 22 -100 51 -121 30
-21 77 -21 101 1 16 14 21 15 28 4 13 -22 94 -19 98 3 2 11 -4 19 -17 23 -20
5 -21 11 -21 174 l0 169 -55 0 c-52 0 -55 -1 -55 -25z m28 -157 c12 -12 17
-104 6 -132 -4 -10 -18 -16 -39 -16 -29 0 -35 4 -45 35 -12 36 -6 90 12 113
13 15 50 16 66 0z"/>
<path d="M2050 425 c0 -22 4 -25 35 -25 31 0 35 3 35 25 0 22 -4 25 -35 25
-31 0 -35 -3 -35 -25z"/>
<path d="M280 356 c-41 -10 -45 -14 -48 -43 -3 -29 0 -33 21 -33 14 0 28 7 31
16 4 10 16 14 38 12 28 -2 34 -8 36 -30 3 -25 0 -28 -28 -28 -98 0 -153 -78
-95 -135 28 -29 79 -33 112 -10 17 12 22 12 26 1 3 -8 19 -12 44 -11 30 2 39
7 41 24 2 11 -1 21 -7 21 -7 0 -11 27 -11 69 0 81 -10 115 -42 134 -35 22 -69
26 -118 13z m80 -171 c0 -32 -41 -55 -65 -35 -8 7 -15 16 -15 21 0 16 32 39
56 39 19 0 24 -5 24 -25z"/>
<path d="M560 357 c-97 -34 -111 -205 -20 -252 55 -29 136 -11 160 36 27 49
-25 68 -66 24 -28 -30 -38 -31 -64 -5 -25 25 -27 95 -4 128 21 31 68 27 72 -5
3 -19 10 -23 38 -23 31 0 34 2 34 30 0 33 -30 70 -57 70 -10 0 -27 2 -38 5
-11 2 -36 -1 -55 -8z"/>
<path d="M813 360 c-44 -10 -63 -27 -63 -56 0 -20 5 -24 30 -24 21 0 30 5 30
16 0 12 9 14 38 12 32 -3 37 -7 40 -30 3 -24 0 -28 -21 -28 -80 0 -127 -31
-127 -85 0 -61 83 -98 137 -60 16 11 22 12 26 2 2 -7 21 -12 43 -11 32 1 40 5
42 23 2 14 -2 21 -12 21 -12 0 -16 17 -18 91 -3 85 -5 93 -28 109 -31 22 -75
29 -117 20z m77 -175 c0 -28 -31 -49 -60 -40 -43 14 -14 64 38 65 17 0 22 -6
22 -25z"/>
<path d="M1372 358 c-83 -23 -106 -173 -36 -239 22 -20 35 -24 90 -24 73 0
104 18 82 48 -11 14 -19 15 -46 8 -51 -15 -92 8 -92 50 0 5 34 9 75 9 l75 0 0
45 c0 79 -67 126 -148 103z m72 -70 c20 -29 12 -38 -35 -38 -41 0 -46 8 -29
41 14 25 45 24 64 -3z"/>
<path d="M1705 363 c-11 -3 -28 -12 -37 -21 -16 -14 -18 -14 -18 1 0 14 -10
17 -50 17 -44 0 -50 -3 -50 -20 0 -11 7 -23 15 -26 23 -9 22 -174 -1 -174 -10
0 -14 -7 -12 -21 3 -19 10 -21 66 -23 58 -1 62 0 62 22 0 12 -5 22 -10 22 -7
0 -10 30 -8 83 3 78 4 82 27 85 36 6 51 -22 51 -94 0 -47 -4 -65 -16 -72 -9
-5 -14 -17 -13 -27 3 -14 14 -18 64 -18 54 0 60 3 63 22 2 14 -2 21 -13 21
-24 0 -18 148 8 164 12 8 22 8 35 0 25 -16 31 -164 7 -164 -11 0 -15 -7 -13
-21 3 -19 9 -21 68 -21 57 0 65 2 68 19 2 14 -4 22 -17 26 -19 5 -21 13 -21
86 0 69 -3 84 -23 106 -27 32 -87 37 -117 10 -18 -16 -20 -16 -35 -1 -9 9 -20
16 -25 16 -5 0 -14 2 -22 4 -7 2 -22 1 -33 -1z"/>
<path d="M2250 356 c-41 -10 -45 -14 -48 -43 -3 -30 -1 -33 23 -33 14 0 28 7
31 15 7 18 55 20 72 3 27 -27 14 -45 -38 -51 -62 -7 -88 -21 -100 -53 -28 -72
51 -131 121 -93 12 6 28 7 37 3 9 -3 31 -7 47 -7 23 -1 31 4 33 21 2 12 -1 22
-7 22 -7 0 -11 29 -11 75 0 81 -17 130 -47 138 -48 13 -72 14 -113 3z m90
-171 c0 -17 -8 -29 -24 -37 -31 -13 -56 -5 -56 20 0 26 20 42 52 42 23 0 28
-4 28 -25z"/>
<path d="M2670 362 c-74 -12 -113 -118 -75 -208 23 -55 100 -79 174 -53 31 11
37 23 23 46 -6 9 -17 10 -45 2 -25 -7 -43 -7 -57 1 -22 12 -42 44 -33 54 3 3
39 6 80 6 l73 0 0 35 c0 82 -59 131 -140 117z m58 -64 c7 -7 12 -20 12 -30 0
-14 -8 -18 -39 -18 -47 0 -55 9 -35 38 17 24 44 28 62 10z"/>
<path d="M2020 340 c0 -11 7 -23 15 -26 23 -9 22 -174 -1 -174 -10 0 -14 -7
-12 -21 3 -19 9 -21 68 -21 57 0 65 2 68 19 2 14 -4 22 -17 26 -20 5 -21 13
-21 111 l0 106 -50 0 c-44 0 -50 -3 -50 -20z"/>
<path d="M3120 340 c0 -10 6 -23 14 -27 10 -6 15 -34 17 -96 4 -79 7 -91 28
-108 28 -23 78 -25 108 -4 15 11 22 12 25 3 2 -6 24 -11 49 -11 37 0 44 3 47
21 2 15 -2 22 -12 22 -14 0 -16 17 -16 110 l0 110 -50 0 c-43 0 -50 -3 -50
-20 0 -10 7 -23 15 -28 13 -7 15 -24 13 -83 l-3 -74 -34 -3 c-20 -2 -37 2 -42
10 -5 7 -9 55 -9 106 l0 92 -50 0 c-43 0 -50 -3 -50 -20z"/>
<path d="M2474 146 c-12 -32 0 -50 36 -50 32 0 35 3 35 30 0 25 -4 29 -33 32
-22 2 -34 -2 -38 -12z"/>
</g>
</svg>
