<?xml version="1.0" standalone="no"?>
<!DOCTYPE svg PUBLIC "-//W3C//DTD SVG 20010904//EN"
 "http://www.w3.org/TR/2001/REC-SVG-20010904/DTD/svg10.dtd">
<svg version="1.0" xmlns="http://www.w3.org/2000/svg"
 width="1600.000000pt" height="476.000000pt" viewBox="0 0 1600.000000 476.000000"
 preserveAspectRatio="xMidYMid meet">

<g transform="translate(0.000000,476.000000) scale(0.100000,-0.100000)"
fill="#000000" stroke="none">
<path d="M750 4740 c-19 -19 -20 -33 -20 -233 0 -191 2 -216 18 -230 13 -12
48 -16 162 -19 125 -3 151 -6 185 -25 52 -28 89 -67 114 -123 19 -41 21 -65
21 -260 l0 -216 -92 -39 c-198 -82 -373 -176 -511 -273 -104 -72 -102 -82 23
-144 118 -59 307 -134 463 -184 l117 -37 0 -44 c0 -38 -3 -44 -17 -39 -243 70
-409 133 -600 227 -132 64 -167 78 -182 70 -10 -6 -56 -50 -101 -98 -378 -406
-428 -886 -138 -1311 53 -77 262 -302 281 -302 6 0 58 24 116 54 58 30 147 71
196 91 98 40 409 145 431 145 10 0 14 -13 14 -42 l0 -43 -113 -34 c-145 -45
-340 -120 -447 -174 -129 -64 -128 -67 85 -197 149 -91 519 -260 570 -260 9 0
32 -36 60 -95 89 -186 235 -378 393 -515 470 -409 1168 -505 1705 -234 323
163 564 425 697 756 22 54 26 58 74 74 108 35 259 95 368 147 182 86 421 234
422 262 2 22 -262 141 -464 210 -193 66 -637 173 -651 157 -3 -4 -23 -56 -44
-117 -118 -340 -325 -628 -562 -785 -125 -82 -118 -86 98 -60 90 11 189 25
221 31 31 6 62 9 69 7 21 -7 -128 -155 -206 -203 -138 -86 -279 -121 -464
-113 -177 8 -320 62 -455 174 -64 53 -154 159 -143 170 2 3 31 -6 64 -20 67
-28 216 -61 238 -52 13 5 15 77 15 530 0 367 -3 527 -11 532 -13 8 -207 6
-336 -2 l-93 -7 0 45 0 45 83 6 c45 4 139 7 208 7 95 0 129 3 138 14 8 9 11
112 9 357 l-3 344 -185 8 c-102 4 -200 10 -218 13 -32 5 -33 7 -30 46 l3 41
95 -4 c52 -2 149 -4 215 -4 l120 0 3 558 2 557 -42 -6 c-116 -17 -235 -59
-333 -117 l-60 -35 -3 166 c-3 186 5 225 61 289 58 65 94 77 257 81 114 3 149
7 163 19 15 14 17 39 17 234 0 214 0 218 -22 233 -20 14 -134 16 -1025 16
-990 0 -1003 0 -1023 -20z m1948 -227 l3 -113 -248 0 c-136 0 -274 -4 -307
-10 -136 -22 -274 -122 -338 -246 -18 -35 -35 -64 -38 -64 -3 0 -18 25 -33 56
-33 66 -114 156 -174 191 -109 64 -125 66 -428 72 l-280 6 -3 99 c-1 55 0 106
2 113 5 11 168 13 923 11 l918 -3 3 -112z m-1245 -187 c107 -38 195 -115 246
-213 53 -104 51 -52 51 -1498 0 -1464 -1 -1443 58 -1615 59 -172 149 -318 276
-446 102 -102 175 -155 301 -219 174 -89 330 -125 535 -125 201 0 343 32 525
119 217 105 410 294 520 512 31 60 59 89 73 74 7 -6 -57 -129 -101 -195 -196
-292 -495 -492 -843 -564 -107 -22 -276 -29 -414 -17 -447 40 -854 289 -1102
677 -78 123 -151 305 -189 474 l-24 105 -5 1355 -5 1355 -27 57 c-28 61 -107
153 -139 163 -47 15 -11 25 89 25 87 0 120 -5 175 -24z m874 -27 c-66 -58
-103 -116 -123 -191 -20 -78 -21 -2861 0 -2988 45 -280 242 -533 504 -651 120
-55 219 -73 382 -73 126 0 158 4 242 27 218 59 393 186 510 367 57 89 66 100
79 100 39 0 -105 -212 -219 -322 -133 -128 -246 -197 -417 -256 -123 -42 -206
-54 -365 -54 -162 0 -237 11 -367 56 -149 50 -256 111 -373 214 -175 152 -287
334 -353 572 l-32 115 0 1395 0 1395 23 57 c30 75 98 165 157 207 81 58 163
81 294 81 l115 0 -57 -51z"/>
<path d="M3364 4735 l-25 -25 3 -211 c3 -195 4 -212 22 -225 15 -10 53 -14
146 -14 153 0 210 -14 263 -67 72 -69 81 -100 82 -258 0 -91 -4 -139 -10 -138
-202 34 -446 73 -497 78 -59 6 -69 5 -75 -10 -7 -20 -5 -22 96 -94 86 -62 211
-191 286 -296 85 -118 194 -340 241 -488 21 -66 43 -121 51 -124 28 -11 470
99 648 161 231 80 475 195 475 222 0 20 -8 27 -117 99 -166 112 -390 223 -615
305 l-58 21 0 187 c0 103 5 204 10 224 16 56 69 119 125 147 45 24 64 26 198
31 132 4 150 7 163 24 11 16 14 64 14 223 0 203 0 204 -25 228 l-24 25 -676 0
-676 0 -25 -25z m1296 -219 l0 -113 -164 -5 c-155 -4 -166 -6 -222 -33 -71
-35 -134 -91 -170 -153 -24 -41 -28 -44 -38 -28 -34 57 -95 122 -147 156 -73
47 -140 60 -317 60 l-132 0 0 115 0 115 595 0 595 0 0 -114z m-792 -200 c61
-32 117 -87 150 -150 26 -49 27 -58 30 -233 l4 -183 -25 0 c-13 0 -29 6 -35
13 -6 7 -12 85 -14 182 -3 162 -5 173 -31 226 -15 31 -53 82 -84 113 -31 31
-53 56 -49 56 3 0 28 -11 54 -24z m401 -33 c-99 -106 -119 -174 -119 -406 l0
-158 -22 3 c-23 3 -23 3 -23 198 0 192 0 196 27 245 29 54 95 123 143 148 17
9 32 16 34 17 2 0 -16 -21 -40 -47z"/>
<path d="M2852 3323 l3 -558 168 2 c207 2 426 18 617 44 189 25 200 28 200 45
0 40 -89 273 -145 381 -77 148 -134 229 -236 338 -153 160 -365 275 -557 299
l-52 7 2 -558z"/>
<path d="M6932 3669 c-5 -13 -13 -38 -16 -56 l-7 -32 75 -23 76 -23 0 -487 0
-487 -57 -11 c-76 -15 -103 -23 -103 -32 0 -5 0 -29 0 -55 l0 -48 304 0 304 0
4 54 c3 61 9 57 -100 80 l-77 16 -3 194 -2 194 32 -7 c18 -4 59 -9 91 -13 l59
-6 190 -286 c105 -157 192 -287 193 -288 1 -2 54 9 118 24 l116 27 6 39 c4 21
3 43 -3 50 -33 42 -202 251 -284 351 -54 66 -98 122 -98 126 0 3 22 16 50 29
150 71 225 229 190 403 -33 171 -134 255 -336 281 -60 8 -134 7 -282 -3 -184
-12 -248 -11 -384 7 -43 5 -48 3 -56 -18z m670 -182 c47 -23 61 -36 79 -74 30
-63 30 -144 -1 -207 -37 -77 -106 -108 -240 -107 -119 1 -110 -17 -110 210 0
109 3 201 8 205 4 5 52 6 107 4 85 -3 109 -8 157 -31z"/>
<path d="M9074 3681 c-2 -2 -4 -25 -4 -51 l0 -46 78 -25 77 -25 0 -360 c0
-311 -2 -366 -17 -415 -23 -72 -61 -121 -123 -156 -46 -26 -58 -28 -155 -28
-98 0 -109 2 -160 30 -67 37 -107 91 -120 165 -6 33 -9 201 -8 410 l3 354 83
20 82 20 0 53 0 53 -302 -2 -303 -3 -3 -46 -3 -46 73 -23 c40 -12 78 -27 85
-32 9 -8 13 -114 15 -426 l3 -417 29 -60 c39 -78 105 -140 191 -181 91 -43
189 -58 335 -51 125 6 210 28 283 70 64 38 142 127 168 195 23 55 24 70 29
464 3 223 7 408 10 411 3 2 41 13 85 24 l80 19 3 54 3 55 -256 0 c-141 0 -259
-2 -261 -4z"/>
<path d="M9785 3675 c-2 -5 -5 -29 -8 -51 l-5 -42 74 -22 74 -22 0 -487 0
-487 -80 -23 c-86 -25 -91 -33 -74 -98 l6 -23 368 0 c355 0 370 1 448 23 153
44 261 135 326 270 59 122 71 183 70 352 0 135 -3 158 -27 231 -51 152 -146
264 -281 329 -122 58 -179 64 -555 62 -212 -1 -335 -6 -336 -12z m696 -184
c159 -61 238 -223 225 -461 -12 -219 -78 -355 -203 -417 -45 -21 -74 -28 -144
-31 -49 -3 -104 -1 -124 2 l-35 7 0 466 0 466 113 -5 c82 -4 127 -11 168 -27z"/>
<path d="M11125 3678 c-2 -7 -6 -31 -7 -53 l-3 -39 90 -27 90 -27 -2 -288 c-2
-159 -6 -376 -9 -481 l-6 -193 -42 -10 c-22 -6 -65 -18 -94 -26 l-53 -15 3
-47 3 -47 268 -3 267 -2 0 54 0 55 -57 11 c-32 6 -71 14 -88 18 l-30 8 -6 194
c-10 318 -10 600 1 600 5 0 90 -107 189 -237 100 -131 226 -296 281 -368 55
-71 139 -181 186 -243 47 -61 89 -114 93 -116 3 -2 35 1 71 8 l65 11 8 445 c4
245 10 497 15 560 l7 114 87 21 c48 11 90 23 93 27 4 4 4 30 0 58 l-7 50 -261
-2 -262 -3 -3 -51 -3 -50 77 -20 c42 -10 82 -23 89 -29 10 -7 15 -94 20 -350
l6 -340 -24 25 c-13 14 -102 129 -198 255 -95 127 -214 284 -264 350 -51 67
-104 142 -119 168 l-28 47 -219 0 c-167 0 -221 -3 -224 -12z"/>
<path d="M5070 3133 c-254 -138 -676 -280 -1022 -344 -71 -13 -92 -31 -84 -73
38 -205 36 -611 -4 -790 -5 -24 -5 -47 1 -58 10 -18 14 -20 114 -38 316 -60
686 -183 959 -321 97 -49 99 -49 125 -33 51 34 154 141 222 230 296 394 306
816 29 1214 -48 69 -228 260 -245 260 -5 -1 -48 -22 -95 -47z"/>
<path d="M3645 2725 c-172 -24 -367 -40 -640 -53 l-150 -7 -3 -345 c-2 -315
-1 -346 15 -357 11 -9 58 -13 142 -13 159 -1 315 -12 604 -46 195 -23 230 -25
242 -13 22 22 47 254 48 434 0 155 -17 357 -34 403 -10 27 -5 27 -224 -3z"/>
<path d="M9514 2301 c-47 -29 -64 -59 -64 -114 0 -42 5 -54 33 -82 62 -62 158
-55 204 14 76 112 -58 252 -173 182z"/>
<path d="M13844 2306 c-49 -22 -74 -61 -74 -118 0 -43 5 -55 33 -83 87 -87
227 -31 227 90 0 91 -97 149 -186 111z"/>
<path d="M14507 2131 c-56 -19 -56 -19 -92 -128 -15 -45 -32 -86 -38 -91 -7
-5 -40 -19 -74 -32 -60 -21 -63 -24 -63 -56 l0 -34 64 0 64 0 5 -342 c4 -363
8 -394 53 -447 42 -50 96 -64 231 -59 96 4 131 10 187 32 39 15 71 28 73 30 2
2 -1 25 -8 51 -11 45 -13 47 -43 41 -17 -3 -68 -9 -113 -12 -105 -9 -138 4
-164 60 -17 37 -19 71 -19 344 l0 302 145 0 145 0 0 50 0 50 -145 0 -145 0 0
124 c0 69 -3 127 -7 129 -5 2 -30 -3 -56 -12z"/>
<path d="M12559 1916 c-55 -15 -128 -56 -190 -108 -26 -21 -49 -38 -52 -38 -3
0 -13 32 -22 70 -20 83 -11 80 -185 50 -63 -11 -116 -20 -117 -20 -2 0 -3 -18
-3 -39 0 -34 3 -40 28 -45 15 -4 44 -12 65 -17 l37 -10 -2 -336 -3 -337 -72
-25 -73 -26 0 -37 0 -38 246 0 245 0 -3 37 c-3 37 -4 38 -73 59 l-70 22 -3
312 -2 313 152 -7 c83 -4 156 -8 162 -9 21 -4 58 84 64 150 4 56 2 68 -13 80
-23 16 -55 16 -116 -1z"/>
<path d="M9510 1894 c-80 -13 -149 -23 -153 -24 -5 0 -7 -17 -5 -37 3 -36 5
-37 68 -57 l65 -21 0 -334 0 -333 -75 -30 c-41 -16 -77 -31 -78 -33 -2 -2 -1
-17 3 -34 l7 -31 244 0 245 0 -3 37 c-2 29 -8 39 -23 42 -11 2 -44 12 -72 23
l-53 19 -2 416 c-2 267 -7 417 -13 419 -5 1 -75 -9 -155 -22z"/>
<path d="M13835 1895 c-77 -13 -143 -24 -147 -24 -5 -1 -8 -19 -8 -40 0 -34 3
-40 28 -45 15 -4 44 -12 65 -17 l37 -10 -2 -336 -3 -335 -70 -28 c-67 -27 -70
-29 -73 -64 l-3 -36 244 0 245 0 6 23 c11 40 7 44 -61 67 -38 12 -72 26 -78
32 -6 5 -12 167 -15 420 -3 262 -9 412 -15 414 -5 1 -73 -9 -150 -21z"/>
<path d="M7110 1900 c-25 -4 -85 -13 -133 -20 l-88 -12 3 -36 c3 -35 5 -36 68
-56 l65 -21 5 -340 c5 -370 7 -377 65 -424 56 -43 106 -54 238 -49 138 4 135
3 227 88 30 27 59 49 64 47 5 -2 19 -32 31 -67 12 -35 26 -65 33 -68 10 -3
208 22 260 34 20 4 23 10 20 41 -3 33 -7 38 -38 46 -19 4 -52 13 -72 18 l-38
10 0 409 0 410 -30 0 c-27 0 -179 -20 -268 -35 -31 -6 -33 -8 -30 -43 3 -36 5
-38 58 -52 30 -8 61 -19 68 -23 9 -6 12 -75 12 -290 0 -155 -4 -287 -8 -294
-4 -7 -41 -26 -82 -44 -99 -42 -199 -50 -248 -19 -64 40 -67 55 -70 448 l-3
352 -32 -1 c-18 -1 -52 -5 -77 -9z"/>
<path d="M8238 1887 l-118 -20 0 -37 c0 -33 4 -39 28 -44 15 -4 44 -12 65 -17
l37 -10 0 -337 0 -338 -67 -24 c-66 -25 -68 -26 -71 -63 l-3 -37 238 2 238 3
0 34 c0 33 -2 35 -65 56 l-65 22 -3 299 -2 300 37 18 c126 61 244 74 303 34
54 -37 58 -63 59 -369 l1 -276 -67 -25 c-66 -24 -68 -26 -71 -61 l-3 -37 235
0 236 0 0 30 c0 17 0 33 1 37 0 4 -28 17 -63 29 l-63 21 -5 339 c-6 379 -7
385 -76 442 -54 45 -100 55 -235 50 -130 -4 -129 -4 -226 -92 -34 -31 -64 -53
-66 -49 -2 5 -14 38 -26 76 -26 78 -11 74 -183 44z"/>
<path d="M11248 1899 c-108 -25 -221 -115 -266 -211 -71 -153 -68 -421 7 -565
30 -59 90 -113 159 -146 116 -54 325 -53 469 2 43 17 88 38 101 47 24 17 25
30 2 88 l-9 24 -49 -18 c-26 -10 -86 -24 -131 -30 -243 -33 -367 56 -387 279
l-7 69 84 6 c46 3 188 11 314 17 127 6 234 13 239 16 12 8 0 137 -19 200 -30
99 -120 186 -228 218 -56 16 -217 19 -279 4z m219 -135 c15 -12 38 -35 49 -52
23 -33 41 -129 27 -143 -9 -9 -288 -39 -360 -39 -37 0 -44 3 -40 18 3 9 8 35
12 57 13 75 66 150 125 174 42 18 155 8 187 -15z"/>
<path d="M13015 1900 c-101 -25 -185 -93 -205 -166 -7 -24 -11 -72 -8 -108 3
-54 9 -72 34 -103 42 -52 70 -70 230 -143 154 -70 197 -97 219 -140 64 -123
-86 -222 -265 -176 -36 9 -75 23 -87 31 -12 8 -40 53 -62 100 -39 82 -42 85
-68 79 -16 -4 -29 -8 -31 -9 -2 -1 0 -62 4 -134 l7 -131 43 -19 c136 -61 387
-63 512 -6 124 57 165 118 166 245 0 62 -4 83 -24 120 -32 57 -98 106 -207
154 -244 107 -258 116 -269 171 -8 45 19 93 61 111 46 19 128 17 190 -4 48
-16 51 -20 88 -97 21 -44 40 -81 41 -83 2 -1 17 1 34 4 l32 7 0 122 0 123 -57
21 c-32 11 -82 26 -112 31 -61 11 -221 12 -266 0z"/>
<path d="M9938 1893 l-68 -4 0 -39 c0 -38 2 -40 49 -57 45 -15 52 -22 75 -73
29 -65 79 -180 131 -305 20 -49 48 -115 61 -145 13 -30 43 -102 67 -160 69
-162 79 -181 96 -176 9 3 34 7 56 11 l40 6 89 207 c213 494 260 588 325 646
14 13 21 31 21 58 l0 38 -92 0 c-51 0 -130 -3 -175 -7 l-83 -6 0 -38 c0 -36 1
-38 53 -55 28 -9 55 -18 59 -21 4 -2 -2 -27 -13 -56 -12 -29 -34 -88 -49 -132
-112 -322 -136 -385 -145 -382 -9 3 -32 58 -110 267 -14 36 -41 107 -60 159
-20 52 -46 134 -58 183 l-22 88 -90 -2 c-49 -1 -120 -3 -157 -5z"/>
<path d="M15058 1893 l-88 -4 0 -42 c0 -42 1 -43 48 -60 l47 -17 49 -128 c27
-70 77 -197 111 -282 34 -85 84 -212 111 -282 49 -127 49 -128 82 -128 17 0
32 -4 32 -9 0 -18 -52 -147 -76 -187 -29 -51 -78 -94 -106 -94 -12 0 -57 21
-101 46 -89 51 -96 51 -134 -6 -63 -92 9 -181 145 -180 125 1 214 66 289 212
19 37 159 363 270 628 117 280 159 361 217 420 38 40 43 49 38 83 -4 37 -4 37
-51 37 -25 0 -103 -3 -173 -7 l-128 -6 0 -38 c0 -37 1 -38 55 -55 30 -10 55
-23 55 -30 0 -7 -14 -52 -31 -101 -17 -48 -39 -113 -49 -143 -43 -128 -130
-373 -134 -377 -9 -9 -24 7 -31 34 -3 16 -27 84 -52 153 -101 278 -135 379
-153 469 -11 51 -20 95 -20 97 0 4 -49 3 -222 -3z"/>
<path d="M2857 1853 c-4 -3 -7 -239 -7 -523 0 -450 2 -519 15 -530 25 -21 173
14 284 66 279 132 494 385 629 746 51 134 55 153 38 167 -19 16 -334 58 -531
70 -180 12 -418 14 -428 4z"/>
</g>
</svg>
